<svg width="142" height="134" viewBox="0 0 142 134" fill="none" xmlns="http://www.w3.org/2000/svg">
<path d="M141.1 57.2L137.1 50.5L115.2 13.7H115.1L114.4 12.4H106.4L75.3 67.1L106.9 121.5H114.9L115.1 121.2L141.2 76.5H125.1L111.2 101.2L91.4 67L110.8 32.8L124.9 57.1L141.1 57.2Z" fill="#41E6AF"/>
<path d="M19.4 48.3L34 23.4L29.1 15.5L25.7 9.9L0.7 54L0 55.2L4 62.2H66.9L98.6 7.9L94.2 0.300003L50.2 0.400002H49.5L42.5 0.300003L46.2 7.3L49.9 14.3L78.7 14.2L58.9 48.3H19.4Z" fill="#41E6AF"/>
<path d="M50.5 19.5C49.4 19.5 48.2 19.7 47 20.1C45.7 20.5 44.4 21.1 43.2 21.8C39.8 23.9 37.4 26.9 37 29.7C36.8 31 37.1 32.1 37.8 32.9C37.9 33.1 38.1 33.2 38.2 33.4C38.3 33.5 38.4 33.5 38.5 33.6C38.6 33.7 38.6 33.7 38.7 33.8C38.9 33.9 39 34 39.2 34.1C41.3 35.1 44.6 34.9 47.8 33.4L47.9 33.3C48.2 33.2 48.5 33 48.8 32.9C49.1 32.8 49.3 32.6 49.6 32.4C49.9 32.2 50.2 32 50.5 31.8C50.8 31.6 51 31.4 51.3 31.2L51.5 31.1C51.7 30.9 51.9 30.8 52.1 30.6C52.2 30.5 52.2 30.5 52.3 30.4C52.5 30.3 52.6 30.1 52.7 30C52.8 29.9 52.9 29.8 53 29.6C53.1 29.4 53.3 29.3 53.4 29.1C53.5 29 53.5 29 53.6 28.9C53.7 28.7 53.9 28.6 54 28.4L54.2 28.2C54.3 28 54.4 27.9 54.5 27.7C54.5 27.7 54.5 27.7 54.5 27.6L54.6 27.4C54.8 27.2 54.9 26.9 55 26.7C55.1 26.5 55.2 26.2 55.3 26L55.4 25.9C55.4 25.8 55.5 25.7 55.5 25.7C55.5 25.6 55.5 25.6 55.6 25.5C55.6 25.3 55.7 25.2 55.7 25C55.7 24.8 55.8 24.8 55.8 24.7C55.8 24.6 55.8 24.5 55.8 24.5C55.8 24.3 55.8 24.2 55.8 24.1V23.9C55.8 23.7 55.8 23.6 55.8 23.4C55.8 23.3 55.8 23.3 55.8 23.2C55.8 23.1 55.8 23 55.8 23C55.8 22.9 55.8 22.9 55.8 22.8V22.7C55.8 22.5 55.7 22.4 55.6 22.2C55.5 22 55.4 21.9 55.3 21.7C54.6 20.2 52.7 19.5 50.5 19.5Z" fill="#41E6AF"/>
<path d="M57.8 26.8C57.8 27 57.7 27.1 57.6 27.3C57.6 27.4 57.6 27.4 57.5 27.5C57.4 27.8 57.3 28 57.1 28.3C56 30.4 54.2 32.4 52 34C51.7 34.2 51.4 34.4 51.1 34.6C50.8 34.8 50.5 35 50.2 35.1H50.1C50 35.2 49.9 35.2 49.8 35.3C49.6 35.4 49.5 35.5 49.3 35.6H49.2C49.1 35.6 49 35.7 48.9 35.7C48.7 35.8 48.5 35.9 48.3 35.9L48.1 36C48.1 36 48.1 36 48 36C47.9 36 47.8 36.1 47.7 36.1C47.5 36.2 47.3 36.2 47.1 36.3L46.9 36.4H46.8C46.6 36.5 46.4 36.5 46.2 36.6C46.1 36.6 46 36.7 45.8 36.7H45.7C45.5 36.7 45.3 36.8 45.2 36.8C45.1 36.8 44.9 36.8 44.8 36.9H44.7C44.6 36.9 44.5 36.9 44.4 37C44.3 37 44.2 37 44.1 37C43.8 37 43.4 37.1 43.1 37.1H43C42.7 37.1 42.4 37.1 42.1 37.1C42 37.1 41.9 37.1 41.9 37.1H41.8C41.6 37.1 41.4 37.1 41.2 37C41.1 37 41 37 40.9 36.9C40.7 36.9 40.5 36.8 40.3 36.8C40.2 36.8 40.1 36.7 40 36.7L45.5 45.6L57.3 45.5L63.4 34.7L57.9 25.7C57.9 25.8 57.9 25.9 57.8 26C57.8 26.1 57.8 26.1 57.8 26.2C57.8 26.3 57.7 26.4 57.7 26.6C57.8 26.7 57.8 26.8 57.8 26.8Z" fill="#41E6AF"/>
<path d="M120.5 59.3C121.1 60.2 121.5 61.3 121.8 62.6C122.1 63.9 122.3 65.3 122.3 66.7C122.3 70.7 121 74.3 118.8 76.1C117.8 76.9 116.7 77.3 115.6 77.1C115.4 77.1 115.2 77 115 77C114.9 77 114.8 76.9 114.7 76.9C114.6 76.9 114.5 76.8 114.4 76.8C114.2 76.7 114 76.6 113.9 76.5C111.9 75.2 110.4 72.3 110 68.8V68.7C110 68.4 109.9 68.1 109.9 67.7C109.9 67.4 109.9 67.1 109.9 66.8C109.9 66.4 109.9 66.1 109.9 65.7C109.9 65.4 109.9 65.1 110 64.8V64.6C110 64.4 110.1 64.1 110.1 63.9C110.1 63.8 110.1 63.7 110.1 63.6C110.1 63.4 110.2 63.2 110.2 63C110.2 62.8 110.3 62.7 110.3 62.5C110.4 62.3 110.4 62.1 110.5 61.9C110.5 61.8 110.6 61.7 110.6 61.6C110.7 61.4 110.7 61.2 110.8 61L110.9 60.7C111 60.5 111.1 60.4 111.1 60.2C111.1 60.2 111.1 60.2 111.1 60.1L111.2 59.9C111.3 59.6 111.5 59.4 111.6 59.2C111.7 59 111.9 58.8 112 58.6L112.1 58.5C112.2 58.4 112.2 58.4 112.3 58.3C112.4 58.2 112.4 58.2 112.4 58.1C112.5 58 112.6 57.9 112.7 57.8C112.8 57.7 112.9 57.6 112.9 57.6C113 57.5 113 57.5 113.1 57.4C113.2 57.3 113.3 57.2 113.4 57.1L113.6 57C113.7 56.9 113.9 56.8 114 56.7C114.1 56.7 114.1 56.7 114.2 56.6C114.3 56.6 114.4 56.5 114.4 56.5C114.4 56.5 114.5 56.5 114.5 56.4H114.6C114.8 56.4 114.9 56.3 115.1 56.3C115.3 56.3 115.5 56.3 115.7 56.3C117.8 56.2 119.3 57.4 120.5 59.3Z" fill="#41E6AF"/>
<path d="M110.4 56.9C110.3 57 110.2 57.2 110.1 57.3C110.1 57.4 110 57.4 110 57.5C109.8 57.7 109.7 58 109.5 58.2C108.2 60.2 107.5 62.8 107.3 65.5C107.3 65.9 107.3 66.2 107.3 66.6C107.3 66.9 107.3 67.3 107.3 67.6V67.7C107.3 67.8 107.3 68 107.3 68.1C107.3 68.3 107.3 68.5 107.4 68.7V68.8C107.4 68.9 107.4 69 107.4 69.1C107.4 69.3 107.5 69.5 107.5 69.7V69.9C107.5 69.9 107.5 69.9 107.5 70C107.5 70.1 107.5 70.2 107.6 70.3C107.6 70.5 107.7 70.7 107.7 70.9L107.8 71.1V71.2C107.8 71.4 107.9 71.6 108 71.8C108 71.9 108.1 72 108.1 72.1V72.2C108.2 72.4 108.2 72.5 108.3 72.7C108.3 72.8 108.4 72.9 108.5 73.1V73.2C108.5 73.3 108.6 73.4 108.6 73.5C108.7 73.6 108.7 73.7 108.7 73.7C108.8 74 109 74.3 109.2 74.6L109.3 74.7C109.5 75 109.6 75.2 109.8 75.4C109.8 75.5 109.9 75.5 109.9 75.6L110 75.7C110.1 75.9 110.3 76 110.4 76.2C110.5 76.3 110.5 76.4 110.6 76.4C110.8 76.6 110.9 76.7 111 76.9C111.1 77 111.2 77 111.2 77.1H100.7L94.6 67L100.6 56.2H111.1C111 56.3 111 56.3 110.9 56.4L110.8 56.5C110.7 56.6 110.6 56.7 110.4 56.9C110.4 56.9 110.5 56.9 110.4 56.9Z" fill="#41E6AF"/>
<path d="M50.5 114.4C49.4 114.4 48.2 114.2 47 113.8C45.7 113.4 44.4 112.8 43.2 112.1C39.8 110 37.4 107 37 104.2C36.8 102.9 37.1 101.8 37.8 101C37.9 100.8 38.1 100.7 38.2 100.5C38.3 100.4 38.4 100.4 38.5 100.3C38.6 100.2 38.6 100.2 38.7 100.1C38.9 100 39 99.9 39.2 99.8C41.3 98.8 44.6 99 47.8 100.5L47.9 100.6C48.2 100.7 48.5 100.9 48.8 101C49.1 101.1 49.3 101.3 49.6 101.5C49.9 101.7 50.2 101.9 50.5 102.1C50.8 102.3 51 102.5 51.3 102.7L51.5 102.8C51.7 103 51.9 103.1 52.1 103.3C52.2 103.4 52.2 103.4 52.3 103.5C52.5 103.6 52.6 103.8 52.7 103.9C52.8 104 52.9 104.1 53 104.3C53.1 104.5 53.3 104.6 53.4 104.8C53.5 104.9 53.5 104.9 53.6 105C53.7 105.2 53.9 105.3 54 105.5L54.2 105.7C54.3 105.9 54.4 106 54.5 106.2V106.3L54.6 106.5C54.8 106.7 54.9 107 55 107.2C55.1 107.4 55.2 107.7 55.3 107.9L55.4 108C55.4 108.1 55.5 108.2 55.5 108.2C55.5 108.3 55.5 108.3 55.6 108.4C55.6 108.6 55.7 108.7 55.7 108.9C55.7 109.1 55.8 109.1 55.8 109.2C55.8 109.3 55.8 109.4 55.8 109.4C55.8 109.6 55.8 109.7 55.8 109.8V110C55.8 110.2 55.8 110.3 55.8 110.5C55.8 110.6 55.8 110.6 55.8 110.7C55.8 110.8 55.8 110.9 55.8 110.9C55.8 111 55.8 111 55.8 111.1V111.2C55.8 111.4 55.7 111.5 55.6 111.7C55.5 111.9 55.4 112 55.3 112.2C54.6 113.7 52.7 114.5 50.5 114.4Z" fill="#41E6AF"/>
<path d="M57.8 107.1C57.8 106.9 57.7 106.8 57.6 106.6C57.6 106.5 57.6 106.5 57.5 106.4C57.4 106.1 57.3 105.9 57.1 105.6C56 103.5 54.2 101.5 52 99.9C51.7 99.7 51.4 99.5 51.1 99.3C50.8 99.1 50.5 98.9 50.2 98.8H50.1C50 98.7 49.9 98.7 49.8 98.6C49.6 98.5 49.5 98.4 49.3 98.3H49.2C49.1 98.3 49 98.2 48.9 98.2C48.7 98.1 48.5 98 48.3 98L48.1 97.9C48.1 97.9 48.1 97.9 48 97.9C47.9 97.9 47.8 97.8 47.7 97.8C47.5 97.7 47.3 97.7 47.1 97.6L46.9 97.5H46.8C46.6 97.4 46.4 97.4 46.2 97.3C46.1 97.3 46 97.2 45.8 97.2H45.7C45.5 97.2 45.3 97.1 45.2 97.1C45.1 97.1 44.9 97.1 44.8 97H44.7C44.6 97 44.5 97 44.4 96.9C44.3 96.9 44.2 96.9 44.1 96.9C43.8 96.9 43.4 96.8 43.1 96.8H43C42.7 96.8 42.4 96.8 42.1 96.8C42 96.8 41.9 96.8 41.9 96.8H41.8C41.6 96.8 41.4 96.8 41.2 96.9C41.1 96.9 41 96.9 40.9 97C40.7 97 40.5 97.1 40.3 97.1C40.2 97.1 40.1 97.2 40 97.2L45.5 88.3L57.3 88.4L63.4 99.2L57.9 108.2C57.9 108.1 57.9 108 57.8 107.9C57.8 107.8 57.8 107.8 57.8 107.7C57.8 107.6 57.7 107.5 57.7 107.3C57.8 107.2 57.8 107.1 57.8 107.1Z" fill="#41E6AF"/>
<path d="M78.7 119.7L49.9 119.6L45.5 127.9L42.5 133.6L50.2 133.5V133.6L94.2 133.7L98.6 126.1L66.9 71.8L4 71.7L0 78.7L0.8 80H0.7L25.7 124L34 110.5L19.4 85.7H58.9L78.7 119.7Z" fill="#41E6AF"/>
</svg>
